v -2.12000 -0.30000 0.31000
v -2.12000 -0.30000 0.55000
v -2.12000 0.00000 0.55000
v -2.12000 0.30000 0.55000
v -2.12000 0.30000 0.31000
v -1.92000 -0.58000 0.31000
v -1.92000 -0.58000 0.67000
v -1.92000 0.00000 0.67000
v -1.92000 0.58000 0.67000
v -1.92000 0.58000 0.31000
v -1.45000 -0.70000 0.31000
v -1.45000 -0.70000 0.70000
v -1.45000 0.00000 0.70000
v -1.45000 0.70000 0.70000
v -1.45000 0.70000 0.31000
v -0.70000 -0.70000 0.31000
v -0.70000 -0.70000 1.16000
v -0.70000 0.00000 1.16000
v -0.70000 0.70000 1.16000
v -0.70000 0.70000 0.31000
v 0.25000 -0.68000 0.31000
v 0.25000 -0.68000 1.22000
v 0.25000 0.00000 1.26000
v 0.25000 0.68000 1.22000
v 0.25000 0.68000 0.31000
v 0.64000 -0.66000 0.31000
v 0.64000 -0.66000 0.87000
v 0.64000 0.00000 0.87000
v 0.64000 0.66000 0.87000
v 0.64000 0.66000 0.31000
v 1.35000 -0.67000 0.31000
v 1.35000 -0.67000 0.70000
v 1.35000 0.00000 0.70000
v 1.35000 0.67000 0.70000
v 1.35000 0.67000 0.31000
v 1.93000 -0.56000 0.31000
v 1.93000 -0.56000 0.66000
v 1.93000 0.00000 0.66000
v 1.93000 0.56000 0.66000
v 1.93000 0.56000 0.31000
v 2.12000 -0.30000 0.31000
v 2.12000 -0.30000 0.53000
v 2.12000 0.00000 0.53000
v 2.12000 0.30000 0.53000
v 2.12000 0.30000 0.31000
v -2.02500 -0.58000 0.29000
v 2.02500 -0.58000 0.29000
v -2.02500 0.58000 0.29000
v 2.02500 0.58000 0.29000
v -2.02500 -0.58000 0.39000
v 2.02500 -0.58000 0.39000
v -2.02500 0.58000 0.39000
v 2.02500 0.58000 0.39000
v -1.82500 -0.62000 0.35000
v 1.82500 -0.62000 0.35000
v -1.82500 -0.52000 0.35000
v 1.82500 -0.52000 0.35000
v -1.82500 -0.62000 0.51000
v 1.82500 -0.62000 0.51000
v -1.82500 -0.52000 0.51000
v 1.82500 -0.52000 0.51000
v -1.82500 0.52000 0.35000
v 1.82500 0.52000 0.35000
v -1.82500 0.62000 0.35000
v 1.82500 0.62000 0.35000
v -1.82500 0.52000 0.51000
v 1.82500 0.52000 0.51000
v -1.82500 0.62000 0.51000
v 1.82500 0.62000 0.51000
v 1.42000 -0.56000 0.37000
v 1.54000 -0.56000 0.37000
v 1.42000 0.56000 0.37000
v 1.54000 0.56000 0.37000
v 1.42000 -0.56000 0.51000
v 1.54000 -0.56000 0.51000
v 1.42000 0.56000 0.51000
v 1.54000 0.56000 0.51000
v -1.49000 -0.56000 0.36000
v -1.37000 -0.56000 0.36000
v -1.49000 0.56000 0.36000
v -1.37000 0.56000 0.36000
v -1.49000 -0.56000 0.50000
v -1.37000 -0.56000 0.50000
v -1.49000 0.56000 0.50000
v -1.37000 0.56000 0.50000
v 0.94500 -0.31000 0.48500
v 1.61500 -0.31000 0.48500
v 0.94500 0.31000 0.48500
v 1.61500 0.31000 0.48500
v 0.94500 -0.31000 0.83500
v 1.61500 -0.31000 0.83500
v 0.94500 0.31000 0.83500
v 1.61500 0.31000 0.83500
v 0.99500 -0.28000 0.82500
v 1.60500 -0.28000 0.82500
v 0.99500 0.28000 0.82500
v 1.60500 0.28000 0.82500
v 0.99500 -0.28000 0.93500
v 1.60500 -0.28000 0.93500
v 0.99500 0.28000 0.93500
v 1.60500 0.28000 0.93500
v 1.73000 -0.30000 0.45000
v 1.83000 -0.30000 0.45000
v 1.73000 0.30000 0.45000
v 1.83000 0.30000 0.45000
v 1.73000 -0.30000 0.85000
v 1.83000 -0.30000 0.85000
v 1.73000 0.30000 0.85000
v 1.83000 0.30000 0.85000
v 0.74500 -0.42000 0.50000
v 1.01500 -0.42000 0.50000
v 0.74500 -0.20000 0.50000
v 1.01500 -0.20000 0.50000
v 0.74500 -0.42000 0.72000
v 1.01500 -0.42000 0.72000
v 0.74500 -0.20000 0.72000
v 1.01500 -0.20000 0.72000
v 0.54000 -0.19000 0.45000
v 0.92000 -0.19000 0.45000
v 0.54000 0.19000 0.45000
v 0.92000 0.19000 0.45000
v 0.54000 -0.19000 0.67000
v 0.92000 -0.19000 0.67000
v 0.54000 0.19000 0.67000
v 0.92000 0.19000 0.67000
v 1.39000 -0.41000 0.64000
v 1.38239 -0.41000 0.67827
v 1.36071 -0.41000 0.71071
v 1.32827 -0.41000 0.73239
v 1.29000 -0.41000 0.74000
v 1.25173 -0.41000 0.73239
v 1.21929 -0.41000 0.71071
v 1.19761 -0.41000 0.67827
v 1.19000 -0.41000 0.64000
v 1.19761 -0.41000 0.60173
v 1.21929 -0.41000 0.56929
v 1.25173 -0.41000 0.54761
v 1.29000 -0.41000 0.54000
v 1.32827 -0.41000 0.54761
v 1.36071 -0.41000 0.56929
v 1.38239 -0.41000 0.60173
v 1.39000 0.41000 0.64000
v 1.38239 0.41000 0.67827
v 1.36071 0.41000 0.71071
v 1.32827 0.41000 0.73239
v 1.29000 0.41000 0.74000
v 1.25173 0.41000 0.73239
v 1.21929 0.41000 0.71071
v 1.19761 0.41000 0.67827
v 1.19000 0.41000 0.64000
v 1.19761 0.41000 0.60173
v 1.21929 0.41000 0.56929
v 1.25173 0.41000 0.54761
v 1.29000 0.41000 0.54000
v 1.32827 0.41000 0.54761
v 1.36071 0.41000 0.56929
v 1.38239 0.41000 0.60173
v 1.29000 -0.41000 0.64000
v 1.29000 0.41000 0.64000
v -0.40500 -0.44500 0.44000
v 0.12500 -0.44500 0.44000
v -0.40500 -0.13500 0.44000
v 0.12500 -0.13500 0.44000
v -0.40500 -0.44500 0.60000
v 0.12500 -0.44500 0.60000
v -0.40500 -0.13500 0.60000
v 0.12500 -0.13500 0.60000
v -0.43500 -0.44500 0.51000
v -0.30500 -0.44500 0.51000
v -0.43500 -0.13500 0.51000
v -0.30500 -0.13500 0.51000
v -0.43500 -0.44500 0.99000
v -0.30500 -0.44500 0.99000
v -0.43500 -0.13500 0.99000
v -0.30500 -0.13500 0.99000
v -0.40500 0.13500 0.44000
v 0.12500 0.13500 0.44000
v -0.40500 0.44500 0.44000
v 0.12500 0.44500 0.44000
v -0.40500 0.13500 0.60000
v 0.12500 0.13500 0.60000
v -0.40500 0.44500 0.60000
v 0.12500 0.44500 0.60000
v -0.43500 0.13500 0.51000
v -0.30500 0.13500 0.51000
v -0.43500 0.44500 0.51000
v -0.30500 0.44500 0.51000
v -0.43500 0.13500 0.99000
v -0.30500 0.13500 0.99000
v -0.43500 0.44500 0.99000
v -0.30500 0.44500 0.99000
v -1.31500 -0.51500 0.44000
v -0.72500 -0.51500 0.44000
v -1.31500 0.51500 0.44000
v -0.72500 0.51500 0.44000
v -1.31500 -0.51500 0.62000
v -0.72500 -0.51500 0.62000
v -1.31500 0.51500 0.62000
v -0.72500 0.51500 0.62000
v -1.34000 -0.51500 0.53000
v -1.20000 -0.51500 0.53000
v -1.34000 0.51500 0.53000
v -1.20000 0.51500 0.53000
v -1.34000 -0.51500 0.99000
v -1.20000 -0.51500 0.99000
v -1.34000 0.51500 0.99000
v -1.20000 0.51500 0.99000
v 0.22000 -0.54000 0.75500
v 0.42000 -0.54000 0.75500
v 0.22000 0.54000 0.75500
v 0.42000 0.54000 0.75500
v 0.22000 -0.54000 0.90500
v 0.42000 -0.54000 0.90500
v 0.22000 0.54000 0.90500
v 0.42000 0.54000 0.90500
v -0.14500 -0.31000 0.67000
v 0.30500 -0.31000 0.67000
v -0.14500 -0.25000 0.67000
v 0.30500 -0.25000 0.67000
v -0.14500 -0.31000 0.73000
v 0.30500 -0.31000 0.73000
v -0.14500 -0.25000 0.73000
v 0.30500 -0.25000 0.73000
v 0.12800 -0.30000 0.83000
v 0.12273 -0.30000 0.84273
v 0.11000 -0.30000 0.84800
v 0.09727 -0.30000 0.84273
v 0.09200 -0.30000 0.83000
v 0.09727 -0.30000 0.81727
v 0.11000 -0.30000 0.81200
v 0.12273 -0.30000 0.81727
v 0.11727 -0.23912 0.83000
v 0.11231 -0.24092 0.84273
v 0.10035 -0.24528 0.84800
v 0.08839 -0.24963 0.84273
v 0.08344 -0.25143 0.83000
v 0.08839 -0.24963 0.81727
v 0.10035 -0.24528 0.81200
v 0.11231 -0.24092 0.81727
v 0.08636 -0.18558 0.83000
v 0.08232 -0.18897 0.84273
v 0.07257 -0.19715 0.84800
v 0.06282 -0.20534 0.84273
v 0.05878 -0.20872 0.83000
v 0.06282 -0.20534 0.81727
v 0.07257 -0.19715 0.81200
v 0.08232 -0.18897 0.81727
v 0.03900 -0.14585 0.83000
v 0.03636 -0.15041 0.84273
v 0.03000 -0.16144 0.84800
v 0.02364 -0.17246 0.84273
v 0.02100 -0.17702 0.83000
v 0.02364 -0.17246 0.81727
v 0.03000 -0.16144 0.81200
v 0.03636 -0.15041 0.81727
v -0.01909 -0.12470 0.83000
v -0.02001 -0.12990 0.84273
v -0.02222 -0.14243 0.84800
v -0.02443 -0.15497 0.84273
v -0.02534 -0.16016 0.83000
v -0.02443 -0.15497 0.81727
v -0.02222 -0.14243 0.81200
v -0.02001 -0.12990 0.81727
v -0.08091 -0.12470 0.83000
v -0.07999 -0.12990 0.84273
v -0.07778 -0.14243 0.84800
v -0.07557 -0.15497 0.84273
v -0.07466 -0.16016 0.83000
v -0.07557 -0.15497 0.81727
v -0.07778 -0.14243 0.81200
v -0.07999 -0.12990 0.81727
v -0.13900 -0.14585 0.83000
v -0.13636 -0.15041 0.84273
v -0.13000 -0.16144 0.84800
v -0.12364 -0.17246 0.84273
v -0.12100 -0.17702 0.83000
v -0.12364 -0.17246 0.81727
v -0.13000 -0.16144 0.81200
v -0.13636 -0.15041 0.81727
v -0.18636 -0.18558 0.83000
v -0.18232 -0.18897 0.84273
v -0.17257 -0.19715 0.84800
v -0.16282 -0.20534 0.84273
v -0.15878 -0.20872 0.83000
v -0.16282 -0.20534 0.81727
v -0.17257 -0.19715 0.81200
v -0.18232 -0.18897 0.81727
v -0.21727 -0.23912 0.83000
v -0.21231 -0.24092 0.84273
v -0.20035 -0.24528 0.84800
v -0.18839 -0.24963 0.84273
v -0.18344 -0.25143 0.83000
v -0.18839 -0.24963 0.81727
v -0.20035 -0.24528 0.81200
v -0.21231 -0.24092 0.81727
v -0.22800 -0.30000 0.83000
v -0.22273 -0.30000 0.84273
v -0.21000 -0.30000 0.84800
v -0.19727 -0.30000 0.84273
v -0.19200 -0.30000 0.83000
v -0.19727 -0.30000 0.81727
v -0.21000 -0.30000 0.81200
v -0.22273 -0.30000 0.81727
v -0.21727 -0.36088 0.83000
v -0.21231 -0.35908 0.84273
v -0.20035 -0.35472 0.84800
v -0.18839 -0.35037 0.84273
v -0.18344 -0.34857 0.83000
v -0.18839 -0.35037 0.81727
v -0.20035 -0.35472 0.81200
v -0.21231 -0.35908 0.81727
v -0.18636 -0.41442 0.83000
v -0.18232 -0.41103 0.84273
v -0.17257 -0.40285 0.84800
v -0.16282 -0.39466 0.84273
v -0.15878 -0.39128 0.83000
v -0.16282 -0.39466 0.81727
v -0.17257 -0.40285 0.81200
v -0.18232 -0.41103 0.81727
v -0.13900 -0.45415 0.83000
v -0.13636 -0.44959 0.84273
v -0.13000 -0.43856 0.84800
v -0.12364 -0.42754 0.84273
v -0.12100 -0.42298 0.83000
v -0.12364 -0.42754 0.81727
v -0.13000 -0.43856 0.81200
v -0.13636 -0.44959 0.81727
v -0.08091 -0.47530 0.83000
v -0.07999 -0.47010 0.84273
v -0.07778 -0.45757 0.84800
v -0.07557 -0.44503 0.84273
v -0.07466 -0.43984 0.83000
v -0.07557 -0.44503 0.81727
v -0.07778 -0.45757 0.81200
v -0.07999 -0.47010 0.81727
v -0.01909 -0.47530 0.83000
v -0.02001 -0.47010 0.84273
v -0.02222 -0.45757 0.84800
v -0.02443 -0.44503 0.84273
v -0.02534 -0.43984 0.83000
v -0.02443 -0.44503 0.81727
v -0.02222 -0.45757 0.81200
v -0.02001 -0.47010 0.81727
v 0.03900 -0.45415 0.83000
v 0.03636 -0.44959 0.84273
v 0.03000 -0.43856 0.84800
v 0.02364 -0.42754 0.84273
v 0.02100 -0.42298 0.83000
v 0.02364 -0.42754 0.81727
v 0.03000 -0.43856 0.81200
v 0.03636 -0.44959 0.81727
v 0.08636 -0.41442 0.83000
v 0.08232 -0.41103 0.84273
v 0.07257 -0.40285 0.84800
v 0.06282 -0.39466 0.84273
v 0.05878 -0.39128 0.83000
v 0.06282 -0.39466 0.81727
v 0.07257 -0.40285 0.81200
v 0.08232 -0.41103 0.81727
v 0.11727 -0.36088 0.83000
v 0.11231 -0.35908 0.84273
v 0.10035 -0.35472 0.84800
v 0.08839 -0.35037 0.84273
v 0.08344 -0.34857 0.83000
v 0.08839 -0.35037 0.81727
v 0.10035 -0.35472 0.81200
v 0.11231 -0.35908 0.81727
v -1.88000 -0.36000 0.38000
v -1.50000 -0.36000 0.38000
v -1.88000 0.36000 0.38000
v -1.50000 0.36000 0.38000
v -1.88000 -0.36000 0.60000
v -1.50000 -0.36000 0.60000
v -1.88000 0.36000 0.60000
v -1.50000 0.36000 0.60000
v 1.85000 -0.85500 0.39000
v 1.82564 -0.85500 0.51246
v 1.75627 -0.85500 0.61627
v 1.65246 -0.85500 0.68564
v 1.53000 -0.85500 0.71000
v 1.40754 -0.85500 0.68564
v 1.30373 -0.85500 0.61627
v 1.23436 -0.85500 0.51246
v 1.21000 -0.85500 0.39000
v 1.23436 -0.85500 0.26754
v 1.30373 -0.85500 0.16373
v 1.40754 -0.85500 0.09436
v 1.53000 -0.85500 0.07000
v 1.65246 -0.85500 0.09436
v 1.75627 -0.85500 0.16373
v 1.82564 -0.85500 0.26754
v 1.85000 -0.66500 0.39000
v 1.82564 -0.66500 0.51246
v 1.75627 -0.66500 0.61627
v 1.65246 -0.66500 0.68564
v 1.53000 -0.66500 0.71000
v 1.40754 -0.66500 0.68564
v 1.30373 -0.66500 0.61627
v 1.23436 -0.66500 0.51246
v 1.21000 -0.66500 0.39000
v 1.23436 -0.66500 0.26754
v 1.30373 -0.66500 0.16373
v 1.40754 -0.66500 0.09436
v 1.53000 -0.66500 0.07000
v 1.65246 -0.66500 0.09436
v 1.75627 -0.66500 0.16373
v 1.82564 -0.66500 0.26754
v 1.53000 -0.85500 0.39000
v 1.53000 -0.66500 0.39000
v 1.67000 -0.86250 0.39000
v 1.65934 -0.86250 0.44358
v 1.62899 -0.86250 0.48899
v 1.58358 -0.86250 0.51934
v 1.53000 -0.86250 0.53000
v 1.47642 -0.86250 0.51934
v 1.43101 -0.86250 0.48899
v 1.40066 -0.86250 0.44358
v 1.39000 -0.86250 0.39000
v 1.40066 -0.86250 0.33642
v 1.43101 -0.86250 0.29101
v 1.47642 -0.86250 0.26066
v 1.53000 -0.86250 0.25000
v 1.58358 -0.86250 0.26066
v 1.62899 -0.86250 0.29101
v 1.65934 -0.86250 0.33642
v 1.67000 -0.65750 0.39000
v 1.65934 -0.65750 0.44358
v 1.62899 -0.65750 0.48899
v 1.58358 -0.65750 0.51934
v 1.53000 -0.65750 0.53000
v 1.47642 -0.65750 0.51934
v 1.43101 -0.65750 0.48899
v 1.40066 -0.65750 0.44358
v 1.39000 -0.65750 0.39000
v 1.40066 -0.65750 0.33642
v 1.43101 -0.65750 0.29101
v 1.47642 -0.65750 0.26066
v 1.53000 -0.65750 0.25000
v 1.58358 -0.65750 0.26066
v 1.62899 -0.65750 0.29101
v 1.65934 -0.65750 0.33642
v 1.53000 -0.86250 0.39000
v 1.53000 -0.65750 0.39000
v 1.85000 0.66500 0.39000
v 1.82564 0.66500 0.51246
v 1.75627 0.66500 0.61627
v 1.65246 0.66500 0.68564
v 1.53000 0.66500 0.71000
v 1.40754 0.66500 0.68564
v 1.30373 0.66500 0.61627
v 1.23436 0.66500 0.51246
v 1.21000 0.66500 0.39000
v 1.23436 0.66500 0.26754
v 1.30373 0.66500 0.16373
v 1.40754 0.66500 0.09436
v 1.53000 0.66500 0.07000
v 1.65246 0.66500 0.09436
v 1.75627 0.66500 0.16373
v 1.82564 0.66500 0.26754
v 1.85000 0.85500 0.39000
v 1.82564 0.85500 0.51246
v 1.75627 0.85500 0.61627
v 1.65246 0.85500 0.68564
v 1.53000 0.85500 0.71000
v 1.40754 0.85500 0.68564
v 1.30373 0.85500 0.61627
v 1.23436 0.85500 0.51246
v 1.21000 0.85500 0.39000
v 1.23436 0.85500 0.26754
v 1.30373 0.85500 0.16373
v 1.40754 0.85500 0.09436
v 1.53000 0.85500 0.07000
v 1.65246 0.85500 0.09436
v 1.75627 0.85500 0.16373
v 1.82564 0.85500 0.26754
v 1.53000 0.66500 0.39000
v 1.53000 0.85500 0.39000
v 1.67000 0.65750 0.39000
v 1.65934 0.65750 0.44358
v 1.62899 0.65750 0.48899
v 1.58358 0.65750 0.51934
v 1.53000 0.65750 0.53000
v 1.47642 0.65750 0.51934
v 1.43101 0.65750 0.48899
v 1.40066 0.65750 0.44358
v 1.39000 0.65750 0.39000
v 1.40066 0.65750 0.33642
v 1.43101 0.65750 0.29101
v 1.47642 0.65750 0.26066
v 1.53000 0.65750 0.25000
v 1.58358 0.65750 0.26066
v 1.62899 0.65750 0.29101
v 1.65934 0.65750 0.33642
v 1.67000 0.86250 0.39000
v 1.65934 0.86250 0.44358
v 1.62899 0.86250 0.48899
v 1.58358 0.86250 0.51934
v 1.53000 0.86250 0.53000
v 1.47642 0.86250 0.51934
v 1.43101 0.86250 0.48899
v 1.40066 0.86250 0.44358
v 1.39000 0.86250 0.39000
v 1.40066 0.86250 0.33642
v 1.43101 0.86250 0.29101
v 1.47642 0.86250 0.26066
v 1.53000 0.86250 0.25000
v 1.58358 0.86250 0.26066
v 1.62899 0.86250 0.29101
v 1.65934 0.86250 0.33642
v 1.53000 0.65750 0.39000
v 1.53000 0.86250 0.39000
v -1.21000 -0.85500 0.39000
v -1.23436 -0.85500 0.51246
v -1.30373 -0.85500 0.61627
v -1.40754 -0.85500 0.68564
v -1.53000 -0.85500 0.71000
v -1.65246 -0.85500 0.68564
v -1.75627 -0.85500 0.61627
v -1.82564 -0.85500 0.51246
v -1.85000 -0.85500 0.39000
v -1.82564 -0.85500 0.26754
v -1.75627 -0.85500 0.16373
v -1.65246 -0.85500 0.09436
v -1.53000 -0.85500 0.07000
v -1.40754 -0.85500 0.09436
v -1.30373 -0.85500 0.16373
v -1.23436 -0.85500 0.26754
v -1.21000 -0.66500 0.39000
v -1.23436 -0.66500 0.51246
v -1.30373 -0.66500 0.61627
v -1.40754 -0.66500 0.68564
v -1.53000 -0.66500 0.71000
v -1.65246 -0.66500 0.68564
v -1.75627 -0.66500 0.61627
v -1.82564 -0.66500 0.51246
v -1.85000 -0.66500 0.39000
v -1.82564 -0.66500 0.26754
v -1.75627 -0.66500 0.16373
v -1.65246 -0.66500 0.09436
v -1.53000 -0.66500 0.07000
v -1.40754 -0.66500 0.09436
v -1.30373 -0.66500 0.16373
v -1.23436 -0.66500 0.26754
v -1.53000 -0.85500 0.39000
v -1.53000 -0.66500 0.39000
v -1.39000 -0.86250 0.39000
v -1.40066 -0.86250 0.44358
v -1.43101 -0.86250 0.48899
v -1.47642 -0.86250 0.51934
v -1.53000 -0.86250 0.53000
v -1.58358 -0.86250 0.51934
v -1.62899 -0.86250 0.48899
v -1.65934 -0.86250 0.44358
v -1.67000 -0.86250 0.39000
v -1.65934 -0.86250 0.33642
v -1.62899 -0.86250 0.29101
v -1.58358 -0.86250 0.26066
v -1.53000 -0.86250 0.25000
v -1.47642 -0.86250 0.26066
v -1.43101 -0.86250 0.29101
v -1.40066 -0.86250 0.33642
v -1.39000 -0.65750 0.39000
v -1.40066 -0.65750 0.44358
v -1.43101 -0.65750 0.48899
v -1.47642 -0.65750 0.51934
v -1.53000 -0.65750 0.53000
v -1.58358 -0.65750 0.51934
v -1.62899 -0.65750 0.48899
v -1.65934 -0.65750 0.44358
v -1.67000 -0.65750 0.39000
v -1.65934 -0.65750 0.33642
v -1.62899 -0.65750 0.29101
v -1.58358 -0.65750 0.26066
v -1.53000 -0.65750 0.25000
v -1.47642 -0.65750 0.26066
v -1.43101 -0.65750 0.29101
v -1.40066 -0.65750 0.33642
v -1.53000 -0.86250 0.39000
v -1.53000 -0.65750 0.39000
v -1.21000 0.66500 0.39000
v -1.23436 0.66500 0.51246
v -1.30373 0.66500 0.61627
v -1.40754 0.66500 0.68564
v -1.53000 0.66500 0.71000
v -1.65246 0.66500 0.68564
v -1.75627 0.66500 0.61627
v -1.82564 0.66500 0.51246
v -1.85000 0.66500 0.39000
v -1.82564 0.66500 0.26754
v -1.75627 0.66500 0.16373
v -1.65246 0.66500 0.09436
v -1.53000 0.66500 0.07000
v -1.40754 0.66500 0.09436
v -1.30373 0.66500 0.16373
v -1.23436 0.66500 0.26754
v -1.21000 0.85500 0.39000
v -1.23436 0.85500 0.51246
v -1.30373 0.85500 0.61627
v -1.40754 0.85500 0.68564
v -1.53000 0.85500 0.71000
v -1.65246 0.85500 0.68564
v -1.75627 0.85500 0.61627
v -1.82564 0.85500 0.51246
v -1.85000 0.85500 0.39000
v -1.82564 0.85500 0.26754
v -1.75627 0.85500 0.16373
v -1.65246 0.85500 0.09436
v -1.53000 0.85500 0.07000
v -1.40754 0.85500 0.09436
v -1.30373 0.85500 0.16373
v -1.23436 0.85500 0.26754
v -1.53000 0.66500 0.39000
v -1.53000 0.85500 0.39000
v -1.39000 0.65750 0.39000
v -1.40066 0.65750 0.44358
v -1.43101 0.65750 0.48899
v -1.47642 0.65750 0.51934
v -1.53000 0.65750 0.53000
v -1.58358 0.65750 0.51934
v -1.62899 0.65750 0.48899
v -1.65934 0.65750 0.44358
v -1.67000 0.65750 0.39000
v -1.65934 0.65750 0.33642
v -1.62899 0.65750 0.29101
v -1.58358 0.65750 0.26066
v -1.53000 0.65750 0.25000
v -1.47642 0.65750 0.26066
v -1.43101 0.65750 0.29101
v -1.40066 0.65750 0.33642
v -1.39000 0.86250 0.39000
v -1.40066 0.86250 0.44358
v -1.43101 0.86250 0.48899
v -1.47642 0.86250 0.51934
v -1.53000 0.86250 0.53000
v -1.58358 0.86250 0.51934
v -1.62899 0.86250 0.48899
v -1.65934 0.86250 0.44358
v -1.67000 0.86250 0.39000
v -1.65934 0.86250 0.33642
v -1.62899 0.86250 0.29101
v -1.58358 0.86250 0.26066
v -1.53000 0.86250 0.25000
v -1.47642 0.86250 0.26066
v -1.43101 0.86250 0.29101
v -1.40066 0.86250 0.33642
v -1.53000 0.65750 0.39000
v -1.53000 0.86250 0.39000
v 2.07500 -0.52000 0.39000
v 2.14500 -0.52000 0.39000
v 2.07500 0.52000 0.39000
v 2.14500 0.52000 0.39000
v 2.07500 -0.52000 0.47000
v 2.14500 -0.52000 0.47000
v 2.07500 0.52000 0.47000
v 2.14500 0.52000 0.47000
v -2.14500 -0.52000 0.39000
v -2.07500 -0.52000 0.39000
v -2.14500 0.52000 0.39000
v -2.07500 0.52000 0.39000
v -2.14500 -0.52000 0.47000
v -2.07500 -0.52000 0.47000
v -2.14500 0.52000 0.47000
v -2.07500 0.52000 0.47000
v 2.01500 -0.30000 0.63000
v 2.01500 -0.31608 0.69000
v 2.01500 -0.36000 0.73392
v 2.01500 -0.42000 0.75000
v 2.01500 -0.48000 0.73392
v 2.01500 -0.52392 0.69000
v 2.01500 -0.54000 0.63000
v 2.01500 -0.52392 0.57000
v 2.01500 -0.48000 0.52608
v 2.01500 -0.42000 0.51000
v 2.01500 -0.36000 0.52608
v 2.01500 -0.31608 0.57000
v 2.06500 -0.30000 0.63000
v 2.06500 -0.31608 0.69000
v 2.06500 -0.36000 0.73392
v 2.06500 -0.42000 0.75000
v 2.06500 -0.48000 0.73392
v 2.06500 -0.52392 0.69000
v 2.06500 -0.54000 0.63000
v 2.06500 -0.52392 0.57000
v 2.06500 -0.48000 0.52608
v 2.06500 -0.42000 0.51000
v 2.06500 -0.36000 0.52608
v 2.06500 -0.31608 0.57000
v 2.01500 -0.42000 0.63000
v 2.06500 -0.42000 0.63000
v 2.01500 0.54000 0.63000
v 2.01500 0.52392 0.69000
v 2.01500 0.48000 0.73392
v 2.01500 0.42000 0.75000
v 2.01500 0.36000 0.73392
v 2.01500 0.31608 0.69000
v 2.01500 0.30000 0.63000
v 2.01500 0.31608 0.57000
v 2.01500 0.36000 0.52608
v 2.01500 0.42000 0.51000
v 2.01500 0.48000 0.52608
v 2.01500 0.52392 0.57000
v 2.06500 0.54000 0.63000
v 2.06500 0.52392 0.69000
v 2.06500 0.48000 0.73392
v 2.06500 0.42000 0.75000
v 2.06500 0.36000 0.73392
v 2.06500 0.31608 0.69000
v 2.06500 0.30000 0.63000
v 2.06500 0.31608 0.57000
v 2.06500 0.36000 0.52608
v 2.06500 0.42000 0.51000
v 2.06500 0.48000 0.52608
v 2.06500 0.52392 0.57000
v 2.01500 0.42000 0.63000
v 2.06500 0.42000 0.63000

# Stylised Peugeot 304 transparent X-ray model
# metres; front is +X
mtllib peugeot-304-xray.mtl

o transparent_body_shell
usemtl body_xray
f 1 6 7 2
f 2 7 8 3
f 3 8 9 4
f 4 9 10 5
f 6 11 12 7
f 7 12 13 8
f 8 13 14 9
f 9 14 15 10
f 11 16 17 12
f 12 17 18 13
f 13 18 19 14
f 14 19 20 15
f 16 21 22 17
f 17 22 23 18
f 18 23 24 19
f 19 24 25 20
f 21 26 27 22
f 22 27 28 23
f 23 28 29 24
f 24 29 30 25
f 26 31 32 27
f 27 32 33 28
f 28 33 34 29
f 29 34 35 30
f 31 36 37 32
f 32 37 38 33
f 33 38 39 34
f 34 39 40 35
f 36 41 42 37
f 37 42 43 38
f 38 43 44 39
f 39 44 45 40
f 1 5 10 6
f 6 10 15 11
f 11 15 20 16
f 16 20 25 21
f 21 25 30 26
f 26 30 35 31
f 31 35 40 36
f 36 40 45 41
o floor_pan
usemtl steel
f 46 47 49 48
f 50 52 53 51
f 46 50 51 47
f 47 51 53 49
f 49 53 52 48
f 48 52 50 46
o left_sill
usemtl steel
f 54 55 57 56
f 58 60 61 59
f 54 58 59 55
f 55 59 61 57
f 57 61 60 56
f 56 60 58 54
o right_sill
usemtl steel
f 62 63 65 64
f 66 68 69 67
f 62 66 67 63
f 63 67 69 65
f 65 69 68 64
f 64 68 66 62
o front_crossmember
usemtl steel
f 70 71 73 72
f 74 76 77 75
f 70 74 75 71
f 71 75 77 73
f 73 77 76 72
f 72 76 74 70
o rear_crossmember
usemtl steel
f 78 79 81 80
f 82 84 85 83
f 78 82 83 79
f 79 83 85 81
f 81 85 84 80
f 80 84 82 78
o engine_block
usemtl engine
f 86 87 89 88
f 90 92 93 91
f 86 90 91 87
f 87 91 93 89
f 89 93 92 88
f 88 92 90 86
o cylinder_head
usemtl alloy
f 94 95 97 96
f 98 100 101 99
f 94 98 99 95
f 95 99 101 97
f 97 101 100 96
f 96 100 98 94
o radiator
usemtl radiator
f 102 103 105 104
f 106 108 109 107
f 102 106 107 103
f 103 107 109 105
f 105 109 108 104
f 104 108 106 102
o battery
usemtl battery
f 110 111 113 112
f 114 116 117 115
f 110 114 115 111
f 111 115 117 113
f 113 117 116 112
f 112 116 114 110
o gearbox
usemtl engine
f 118 119 121 120
f 122 124 125 123
f 118 122 123 119
f 119 123 125 121
f 121 125 124 120
f 120 124 122 118
o crankshaft
usemtl chrome
f 126 127 143 142
f 158 127 126
f 159 142 143
f 127 128 144 143
f 158 128 127
f 159 143 144
f 128 129 145 144
f 158 129 128
f 159 144 145
f 129 130 146 145
f 158 130 129
f 159 145 146
f 130 131 147 146
f 158 131 130
f 159 146 147
f 131 132 148 147
f 158 132 131
f 159 147 148
f 132 133 149 148
f 158 133 132
f 159 148 149
f 133 134 150 149
f 158 134 133
f 159 149 150
f 134 135 151 150
f 158 135 134
f 159 150 151
f 135 136 152 151
f 158 136 135
f 159 151 152
f 136 137 153 152
f 158 137 136
f 159 152 153
f 137 138 154 153
f 158 138 137
f 159 153 154
f 138 139 155 154
f 158 139 138
f 159 154 155
f 139 140 156 155
f 158 140 139
f 159 155 156
f 140 141 157 156
f 158 141 140
f 159 156 157
f 141 126 142 157
f 158 126 141
f 159 157 142
o front_seat_cushion
usemtl upholstery
f 160 161 163 162
f 164 166 167 165
f 160 164 165 161
f 161 165 167 163
f 163 167 166 162
f 162 166 164 160
o front_seat_back
usemtl upholstery
f 168 169 171 170
f 172 174 175 173
f 168 172 173 169
f 169 173 175 171
f 171 175 174 170
f 170 174 172 168
o passenger_seat_cushion
usemtl upholstery
f 176 177 179 178
f 180 182 183 181
f 176 180 181 177
f 177 181 183 179
f 179 183 182 178
f 178 182 180 176
o passenger_seat_back
usemtl upholstery
f 184 185 187 186
f 188 190 191 189
f 184 188 189 185
f 185 189 191 187
f 187 191 190 186
f 186 190 188 184
o rear_bench
usemtl upholstery
f 192 193 195 194
f 196 198 199 197
f 192 196 197 193
f 193 197 199 195
f 195 199 198 194
f 194 198 196 192
o rear_backrest
usemtl upholstery
f 200 201 203 202
f 204 206 207 205
f 200 204 205 201
f 201 205 207 203
f 203 207 206 202
f 202 206 204 200
o dashboard
usemtl interior_dark
f 208 209 211 210
f 212 214 215 213
f 208 212 213 209
f 209 213 215 211
f 211 215 214 210
f 210 214 212 208
o steering_column
usemtl chrome
f 216 217 219 218
f 220 222 223 221
f 216 220 221 217
f 217 221 223 219
f 219 223 222 218
f 218 222 220 216
o steering_wheel
usemtl chrome
f 224 232 233 225
f 225 233 234 226
f 226 234 235 227
f 227 235 236 228
f 228 236 237 229
f 229 237 238 230
f 230 238 239 231
f 231 239 232 224
f 232 240 241 233
f 233 241 242 234
f 234 242 243 235
f 235 243 244 236
f 236 244 245 237
f 237 245 246 238
f 238 246 247 239
f 239 247 240 232
f 240 248 249 241
f 241 249 250 242
f 242 250 251 243
f 243 251 252 244
f 244 252 253 245
f 245 253 254 246
f 246 254 255 247
f 247 255 248 240
f 248 256 257 249
f 249 257 258 250
f 250 258 259 251
f 251 259 260 252
f 252 260 261 253
f 253 261 262 254
f 254 262 263 255
f 255 263 256 248
f 256 264 265 257
f 257 265 266 258
f 258 266 267 259
f 259 267 268 260
f 260 268 269 261
f 261 269 270 262
f 262 270 271 263
f 263 271 264 256
f 264 272 273 265
f 265 273 274 266
f 266 274 275 267
f 267 275 276 268
f 268 276 277 269
f 269 277 278 270
f 270 278 279 271
f 271 279 272 264
f 272 280 281 273
f 273 281 282 274
f 274 282 283 275
f 275 283 284 276
f 276 284 285 277
f 277 285 286 278
f 278 286 287 279
f 279 287 280 272
f 280 288 289 281
f 281 289 290 282
f 282 290 291 283
f 283 291 292 284
f 284 292 293 285
f 285 293 294 286
f 286 294 295 287
f 287 295 288 280
f 288 296 297 289
f 289 297 298 290
f 290 298 299 291
f 291 299 300 292
f 292 300 301 293
f 293 301 302 294
f 294 302 303 295
f 295 303 296 288
f 296 304 305 297
f 297 305 306 298
f 298 306 307 299
f 299 307 308 300
f 300 308 309 301
f 301 309 310 302
f 302 310 311 303
f 303 311 304 296
f 304 312 313 305
f 305 313 314 306
f 306 314 315 307
f 307 315 316 308
f 308 316 317 309
f 309 317 318 310
f 310 318 319 311
f 311 319 312 304
f 312 320 321 313
f 313 321 322 314
f 314 322 323 315
f 315 323 324 316
f 316 324 325 317
f 317 325 326 318
f 318 326 327 319
f 319 327 320 312
f 320 328 329 321
f 321 329 330 322
f 322 330 331 323
f 323 331 332 324
f 324 332 333 325
f 325 333 334 326
f 326 334 335 327
f 327 335 328 320
f 328 336 337 329
f 329 337 338 330
f 330 338 339 331
f 331 339 340 332
f 332 340 341 333
f 333 341 342 334
f 334 342 343 335
f 335 343 336 328
f 336 344 345 337
f 337 345 346 338
f 338 346 347 339
f 339 347 348 340
f 340 348 349 341
f 341 349 350 342
f 342 350 351 343
f 343 351 344 336
f 344 352 353 345
f 345 353 354 346
f 346 354 355 347
f 347 355 356 348
f 348 356 357 349
f 349 357 358 350
f 350 358 359 351
f 351 359 352 344
f 352 360 361 353
f 353 361 362 354
f 354 362 363 355
f 355 363 364 356
f 356 364 365 357
f 357 365 366 358
f 358 366 367 359
f 359 367 360 352
f 360 224 225 361
f 361 225 226 362
f 362 226 227 363
f 363 227 228 364
f 364 228 229 365
f 365 229 230 366
f 366 230 231 367
f 367 231 224 360
o fuel_tank
usemtl fuel
f 368 369 371 370
f 372 374 375 373
f 368 372 373 369
f 369 373 375 371
f 371 375 374 370
f 370 374 372 368
o front_left_tyre
usemtl tyre
f 376 377 393 392
f 408 377 376
f 409 392 393
f 377 378 394 393
f 408 378 377
f 409 393 394
f 378 379 395 394
f 408 379 378
f 409 394 395
f 379 380 396 395
f 408 380 379
f 409 395 396
f 380 381 397 396
f 408 381 380
f 409 396 397
f 381 382 398 397
f 408 382 381
f 409 397 398
f 382 383 399 398
f 408 383 382
f 409 398 399
f 383 384 400 399
f 408 384 383
f 409 399 400
f 384 385 401 400
f 408 385 384
f 409 400 401
f 385 386 402 401
f 408 386 385
f 409 401 402
f 386 387 403 402
f 408 387 386
f 409 402 403
f 387 388 404 403
f 408 388 387
f 409 403 404
f 388 389 405 404
f 408 389 388
f 409 404 405
f 389 390 406 405
f 408 390 389
f 409 405 406
f 390 391 407 406
f 408 391 390
f 409 406 407
f 391 376 392 407
f 408 376 391
f 409 407 392
o front_left_hub
usemtl chrome
f 410 411 427 426
f 442 411 410
f 443 426 427
f 411 412 428 427
f 442 412 411
f 443 427 428
f 412 413 429 428
f 442 413 412
f 443 428 429
f 413 414 430 429
f 442 414 413
f 443 429 430
f 414 415 431 430
f 442 415 414
f 443 430 431
f 415 416 432 431
f 442 416 415
f 443 431 432
f 416 417 433 432
f 442 417 416
f 443 432 433
f 417 418 434 433
f 442 418 417
f 443 433 434
f 418 419 435 434
f 442 419 418
f 443 434 435
f 419 420 436 435
f 442 420 419
f 443 435 436
f 420 421 437 436
f 442 421 420
f 443 436 437
f 421 422 438 437
f 442 422 421
f 443 437 438
f 422 423 439 438
f 442 423 422
f 443 438 439
f 423 424 440 439
f 442 424 423
f 443 439 440
f 424 425 441 440
f 442 425 424
f 443 440 441
f 425 410 426 441
f 442 410 425
f 443 441 426
o front_right_tyre
usemtl tyre
f 444 445 461 460
f 476 445 444
f 477 460 461
f 445 446 462 461
f 476 446 445
f 477 461 462
f 446 447 463 462
f 476 447 446
f 477 462 463
f 447 448 464 463
f 476 448 447
f 477 463 464
f 448 449 465 464
f 476 449 448
f 477 464 465
f 449 450 466 465
f 476 450 449
f 477 465 466
f 450 451 467 466
f 476 451 450
f 477 466 467
f 451 452 468 467
f 476 452 451
f 477 467 468
f 452 453 469 468
f 476 453 452
f 477 468 469
f 453 454 470 469
f 476 454 453
f 477 469 470
f 454 455 471 470
f 476 455 454
f 477 470 471
f 455 456 472 471
f 476 456 455
f 477 471 472
f 456 457 473 472
f 476 457 456
f 477 472 473
f 457 458 474 473
f 476 458 457
f 477 473 474
f 458 459 475 474
f 476 459 458
f 477 474 475
f 459 444 460 475
f 476 444 459
f 477 475 460
o front_right_hub
usemtl chrome
f 478 479 495 494
f 510 479 478
f 511 494 495
f 479 480 496 495
f 510 480 479
f 511 495 496
f 480 481 497 496
f 510 481 480
f 511 496 497
f 481 482 498 497
f 510 482 481
f 511 497 498
f 482 483 499 498
f 510 483 482
f 511 498 499
f 483 484 500 499
f 510 484 483
f 511 499 500
f 484 485 501 500
f 510 485 484
f 511 500 501
f 485 486 502 501
f 510 486 485
f 511 501 502
f 486 487 503 502
f 510 487 486
f 511 502 503
f 487 488 504 503
f 510 488 487
f 511 503 504
f 488 489 505 504
f 510 489 488
f 511 504 505
f 489 490 506 505
f 510 490 489
f 511 505 506
f 490 491 507 506
f 510 491 490
f 511 506 507
f 491 492 508 507
f 510 492 491
f 511 507 508
f 492 493 509 508
f 510 493 492
f 511 508 509
f 493 478 494 509
f 510 478 493
f 511 509 494
o rear_left_tyre
usemtl tyre
f 512 513 529 528
f 544 513 512
f 545 528 529
f 513 514 530 529
f 544 514 513
f 545 529 530
f 514 515 531 530
f 544 515 514
f 545 530 531
f 515 516 532 531
f 544 516 515
f 545 531 532
f 516 517 533 532
f 544 517 516
f 545 532 533
f 517 518 534 533
f 544 518 517
f 545 533 534
f 518 519 535 534
f 544 519 518
f 545 534 535
f 519 520 536 535
f 544 520 519
f 545 535 536
f 520 521 537 536
f 544 521 520
f 545 536 537
f 521 522 538 537
f 544 522 521
f 545 537 538
f 522 523 539 538
f 544 523 522
f 545 538 539
f 523 524 540 539
f 544 524 523
f 545 539 540
f 524 525 541 540
f 544 525 524
f 545 540 541
f 525 526 542 541
f 544 526 525
f 545 541 542
f 526 527 543 542
f 544 527 526
f 545 542 543
f 527 512 528 543
f 544 512 527
f 545 543 528
o rear_left_hub
usemtl chrome
f 546 547 563 562
f 578 547 546
f 579 562 563
f 547 548 564 563
f 578 548 547
f 579 563 564
f 548 549 565 564
f 578 549 548
f 579 564 565
f 549 550 566 565
f 578 550 549
f 579 565 566
f 550 551 567 566
f 578 551 550
f 579 566 567
f 551 552 568 567
f 578 552 551
f 579 567 568
f 552 553 569 568
f 578 553 552
f 579 568 569
f 553 554 570 569
f 578 554 553
f 579 569 570
f 554 555 571 570
f 578 555 554
f 579 570 571
f 555 556 572 571
f 578 556 555
f 579 571 572
f 556 557 573 572
f 578 557 556
f 579 572 573
f 557 558 574 573
f 578 558 557
f 579 573 574
f 558 559 575 574
f 578 559 558
f 579 574 575
f 559 560 576 575
f 578 560 559
f 579 575 576
f 560 561 577 576
f 578 561 560
f 579 576 577
f 561 546 562 577
f 578 546 561
f 579 577 562
o rear_right_tyre
usemtl tyre
f 580 581 597 596
f 612 581 580
f 613 596 597
f 581 582 598 597
f 612 582 581
f 613 597 598
f 582 583 599 598
f 612 583 582
f 613 598 599
f 583 584 600 599
f 612 584 583
f 613 599 600
f 584 585 601 600
f 612 585 584
f 613 600 601
f 585 586 602 601
f 612 586 585
f 613 601 602
f 586 587 603 602
f 612 587 586
f 613 602 603
f 587 588 604 603
f 612 588 587
f 613 603 604
f 588 589 605 604
f 612 589 588
f 613 604 605
f 589 590 606 605
f 612 590 589
f 613 605 606
f 590 591 607 606
f 612 591 590
f 613 606 607
f 591 592 608 607
f 612 592 591
f 613 607 608
f 592 593 609 608
f 612 593 592
f 613 608 609
f 593 594 610 609
f 612 594 593
f 613 609 610
f 594 595 611 610
f 612 595 594
f 613 610 611
f 595 580 596 611
f 612 580 595
f 613 611 596
o rear_right_hub
usemtl chrome
f 614 615 631 630
f 646 615 614
f 647 630 631
f 615 616 632 631
f 646 616 615
f 647 631 632
f 616 617 633 632
f 646 617 616
f 647 632 633
f 617 618 634 633
f 646 618 617
f 647 633 634
f 618 619 635 634
f 646 619 618
f 647 634 635
f 619 620 636 635
f 646 620 619
f 647 635 636
f 620 621 637 636
f 646 621 620
f 647 636 637
f 621 622 638 637
f 646 622 621
f 647 637 638
f 622 623 639 638
f 646 623 622
f 647 638 639
f 623 624 640 639
f 646 624 623
f 647 639 640
f 624 625 641 640
f 646 625 624
f 647 640 641
f 625 626 642 641
f 646 626 625
f 647 641 642
f 626 627 643 642
f 646 627 626
f 647 642 643
f 627 628 644 643
f 646 628 627
f 647 643 644
f 628 629 645 644
f 646 629 628
f 647 644 645
f 629 614 630 645
f 646 614 629
f 647 645 630
o front_bumper
usemtl chrome
f 648 649 651 650
f 652 654 655 653
f 648 652 653 649
f 649 653 655 651
f 651 655 654 650
f 650 654 652 648
o rear_bumper
usemtl chrome
f 656 657 659 658
f 660 662 663 661
f 656 660 661 657
f 657 661 663 659
f 659 663 662 658
f 658 662 660 656
o headlamp
usemtl lamp
f 664 665 677 676
f 688 665 664
f 689 676 677
f 665 666 678 677
f 688 666 665
f 689 677 678
f 666 667 679 678
f 688 667 666
f 689 678 679
f 667 668 680 679
f 688 668 667
f 689 679 680
f 668 669 681 680
f 688 669 668
f 689 680 681
f 669 670 682 681
f 688 670 669
f 689 681 682
f 670 671 683 682
f 688 671 670
f 689 682 683
f 671 672 684 683
f 688 672 671
f 689 683 684
f 672 673 685 684
f 688 673 672
f 689 684 685
f 673 674 686 685
f 688 674 673
f 689 685 686
f 674 675 687 686
f 688 675 674
f 689 686 687
f 675 664 676 687
f 688 664 675
f 689 687 676
o headlamp
usemtl lamp
f 690 691 703 702
f 714 691 690
f 715 702 703
f 691 692 704 703
f 714 692 691
f 715 703 704
f 692 693 705 704
f 714 693 692
f 715 704 705
f 693 694 706 705
f 714 694 693
f 715 705 706
f 694 695 707 706
f 714 695 694
f 715 706 707
f 695 696 708 707
f 714 696 695
f 715 707 708
f 696 697 709 708
f 714 697 696
f 715 708 709
f 697 698 710 709
f 714 698 697
f 715 709 710
f 698 699 711 710
f 714 699 698
f 715 710 711
f 699 700 712 711
f 714 700 699
f 715 711 712
f 700 701 713 712
f 714 701 700
f 715 712 713
f 701 690 702 713
f 714 690 701
f 715 713 702
