<svg xmlns="http://www.w3.org/2000/svg" width="1240" height="1754" viewBox="0 0 1240 1754"><defs><linearGradient id="lhGrad" x1="0%" x2="100%" y1="100%" y2="0%"><stop offset="0%" stop-color="#19E3FF"/><stop offset="50%" stop-color="#7C5CFF"/><stop offset="100%" stop-color="#FF2D9C"/></linearGradient><linearGradient id="lhRule" x1="0%" x2="100%" y1="0%" y2="0%"><stop offset="0%" stop-color="#19E3FF"/><stop offset="50%" stop-color="#7C5CFF"/><stop offset="100%" stop-color="#FF2D9C"/></linearGradient></defs><rect width="1240" height="1754" fill="#FFF"/><g><g fill="none" stroke="url(#lhGrad)" stroke-dasharray=".1 11.5" stroke-linecap="round" stroke-width="8.5" transform="translate(96 104) scale(0.92)"><path d="M23 83 L50 17 L77 83"/><path d="M35 59 L65 59"/></g><text x="112" y="60" fill="#0B0F18" font-family="Space Grotesk, sans-serif" font-size="42" font-weight="600" letter-spacing="-1.2" transform="translate(96 104)">Ambient<tspan fill="#119FBE">Nav</tspan></text><text x="114" y="88" fill="#6B7488" font-family="IBM Plex Mono, monospace" font-size="13" letter-spacing="3.4" transform="translate(96 104)">FOLLOW THE LIGHT</text></g><g fill="#6B7488" font-family="IBM Plex Mono, monospace" font-size="14" text-anchor="end"><text y="0" letter-spacing=".5" transform="translate(1144 112)">AmbientNav Systems GmbH</text><text y="22" letter-spacing=".5" transform="translate(1144 112)">Lindenstraße 12 · 60311 Frankfurt</text><text y="44" letter-spacing=".5" transform="translate(1144 112)">hello@ambientnav.io · ambientnav.io</text></g><rect width="1048" height="3" x="96" y="228" fill="url(#lhRule)" rx="1.5"/><g fill="#D5DAE4"><rect width="220" height="15" x="96" y="360" fill="#0B0F18" rx="7.5"/><rect width="900" height="11" x="96" y="420" rx="5.5"/><rect width="980" height="11" x="96" y="448" rx="5.5"/><rect width="930" height="11" x="96" y="476" rx="5.5"/><rect width="640" height="11" x="96" y="504" rx="5.5"/><rect width="980" height="11" x="96" y="576" rx="5.5"/><rect width="940" height="11" x="96" y="604" rx="5.5"/><rect width="990" height="11" x="96" y="632" rx="5.5"/><rect width="500" height="11" x="96" y="660" rx="5.5"/></g><rect width="1048" height="1.5" x="96" y="1606" fill="#E2E6EE"/><g fill="#9AA4B8" font-family="IBM Plex Mono, monospace" font-size="12.5" letter-spacing=".4"><text y="0" transform="translate(96 1652)">AmbientNav Systems GmbH · Frankfurt am Main · HRB 000000</text><text y="22" transform="translate(96 1652)">USt-IdNr. DE000000000 · IBAN DE00 0000 0000 0000 0000 00</text></g><g fill="none" stroke="url(#lhGrad)" stroke-dasharray=".1 12" stroke-linecap="round" stroke-width="9" transform="translate(1100 1636) scale(0.42)"><path d="M23 83 L50 17 L77 83"/><path d="M35 59 L65 59"/></g></svg>